<svg xmlns="http://www.w3.org/2000/svg" viewBox="0 0 800 600" role="img" aria-labelledby="t7">
  <title id="t7">高級焼肉店のWebサイトデザイン例</title>
  <defs>
    <linearGradient id="g7" x1="0%" y1="0%" x2="100%" y2="100%">
      <stop offset="0%" stop-color="#5c2a28"/>
      <stop offset="100%" stop-color="#1a1210"/>
    </linearGradient>
    <radialGradient id="r7" cx="80%" cy="10%" r="60%">
      <stop offset="0%" stop-color="#ffffff" stop-opacity="0.25"/>
      <stop offset="100%" stop-color="#ffffff" stop-opacity="0"/>
    </radialGradient>
  </defs>
  <rect width="800" height="600" fill="url(#g7)"/>
  <rect width="800" height="600" fill="url(#r7)"/>
  <g transform="translate(400,300)" stroke="#ffffff" stroke-width="6" fill="none" stroke-linecap="round" stroke-linejoin="round" opacity="0.92">
    <path d="M0,80 C-40,55 -46,10 -22,-18 C-26,-2 -14,4 -8,-8 C-16,-32 -4,-58 18,-72 C10,-48 24,-40 30,-54 C46,-30 46,4 26,26 C36,20 42,8 42,-4 C56,18 50,58 12,78 C24,64 22,48 12,42 C4,58 -8,66 0,80 Z"/>
  </g>
</svg>
